<svg width="24" height="24" viewBox="0 0 24 24" fill="none" xmlns="http://www.w3.org/2000/svg">
<path d="M11.9906 6.99438V20.9834" stroke="#6A7282" stroke-width="1.99843" stroke-linecap="round" stroke-linejoin="round"/>
<path d="M2.99764 17.9858C2.73264 17.9858 2.47848 17.8805 2.29109 17.6931C2.1037 17.5057 1.99843 17.2516 1.99843 16.9866V3.99677C1.99843 3.73177 2.1037 3.47761 2.29109 3.29022C2.47848 3.10283 2.73264 2.99756 2.99764 2.99756H7.99372C9.05375 2.99756 10.0704 3.41865 10.8199 4.16821C11.5695 4.91777 11.9906 5.93439 11.9906 6.99442C11.9906 5.93439 12.4117 4.91777 13.1612 4.16821C13.9108 3.41865 14.9274 2.99756 15.9874 2.99756H20.9835C21.2485 2.99756 21.5027 3.10283 21.6901 3.29022C21.8775 3.47761 21.9827 3.73177 21.9827 3.99677V16.9866C21.9827 17.2516 21.8775 17.5057 21.6901 17.6931C21.5027 17.8805 21.2485 17.9858 20.9835 17.9858H14.9882C14.1932 17.9858 13.4307 18.3016 12.8686 18.8638C12.3064 19.4259 11.9906 20.1884 11.9906 20.9834C11.9906 20.1884 11.6748 19.4259 11.1126 18.8638C10.5504 18.3016 9.78796 17.9858 8.99293 17.9858H2.99764Z" stroke="#6A7282" stroke-width="1.99843" stroke-linecap="round" stroke-linejoin="round"/>
</svg>
