<svg width="24" height="24" viewBox="0 0 24 24" fill="none" xmlns="http://www.w3.org/2000/svg">
<path d="M10.26 20.9834C10.4354 21.2872 10.6877 21.5394 10.9915 21.7148C11.2953 21.8902 11.6399 21.9825 11.9907 21.9825C12.3414 21.9825 12.686 21.8902 12.9898 21.7148C13.2936 21.5394 13.5459 21.2872 13.7213 20.9834" stroke="#6A7282" stroke-width="1.99843" stroke-linecap="round" stroke-linejoin="round"/>
<path d="M3.25936 15.3141C3.12882 15.4571 3.04268 15.6351 3.01141 15.8262C2.98013 16.0173 3.00507 16.2134 3.0832 16.3906C3.16133 16.5678 3.28927 16.7185 3.45146 16.8244C3.61365 16.9302 3.80311 16.9866 3.99678 16.9868H19.9842C20.1779 16.9868 20.3674 16.9306 20.5297 16.825C20.692 16.7194 20.8201 16.5688 20.8984 16.3917C20.9767 16.2146 21.0019 16.0186 20.9709 15.8275C20.9399 15.6363 20.854 15.4583 20.7236 15.3151C19.3947 13.9452 17.9858 12.4893 17.9858 7.99383C17.9858 6.40378 17.3541 4.87885 16.2298 3.75452C15.1055 2.63018 13.5805 1.99854 11.9905 1.99854C10.4004 1.99854 8.87552 2.63018 7.75119 3.75452C6.62685 4.87885 5.99521 6.40378 5.99521 7.99383C5.99521 12.4893 4.58531 13.9452 3.25936 15.3141Z" stroke="#6A7282" stroke-width="1.99843" stroke-linecap="round" stroke-linejoin="round"/>
</svg>
